<?xml version="1.0" encoding="UTF-8"?>
<!--
  Blog hero topographic pattern. Procedurally generated: marching-squares
  contour extraction from a Gaussian + fractal-noise height field. Regenerate
  with  node scripts/generate-topo.mjs
-->
<svg xmlns="http://www.w3.org/2000/svg" viewBox="0 0 400 300"
     preserveAspectRatio="xMidYMid slice" aria-hidden="true">
  <rect width="400" height="300" fill="#eee5d3"/>
  <g fill="none" stroke-linecap="round" stroke-linejoin="round">
    <polyline points="375.8,0 384,4.8 396,6.7 400,8.9" stroke="#95aead" stroke-width="1.5" opacity="0.8"/>
    <polyline points="180.5,300 176,297.6 172,297 166.8,300" stroke="#95aead" stroke-width="1.5" opacity="0.8"/>
    <polyline points="359,0 364,5.1 388,17.2 392,20.1 400,28.5" stroke="#95aead" stroke-width="1.5" opacity="0.8"/>
    <polyline points="197.5,300 192,292.4 180,281 164.3,272 156.5,264 148,261.9 144,262.6 137.9,268 135.2,280 132,282.2 127.3,284 108,287.7 101.7,292 93.5,300" stroke="#95aead" stroke-width="1.5" opacity="0.8"/>
    <polyline points="0,7.1 9.5,0" stroke="#95aead" stroke-width="1" opacity="0.5"/>
    <polyline points="340.3,0 352,12.9 364,19.1 384,34.1 389,40 396,53.8 400,59.2" stroke="#95aead" stroke-width="1" opacity="0.5"/>
    <polyline points="214.7,300 207.1,288 204.8,280 206,276 212.6,268 213.5,264 211.2,260 208,257.2 192,250.1 182.6,252 180,252.1 176,251 152,237 148,235.7 140,236.7 128,240.8 124,244.1 108.6,264 96,274.9 88,280.4 80,288.2 76,290.6 52,296.5 40,296.3 32,297.8 16,295.9 4,297 0,296.3" stroke="#95aead" stroke-width="1" opacity="0.5"/>
    <polyline points="400,298.2 396.3,300" stroke="#95aead" stroke-width="1" opacity="0.5"/>
    <polyline points="0,24.1 31.9,0" stroke="#95aead" stroke-width="1" opacity="0.5"/>
    <polyline points="322.5,0 335,12 344,22.5 356,28.4 365.1,36 380,51.6 382.9,56 386.1,64 388.9,68 393.7,72 400,75" stroke="#95aead" stroke-width="1" opacity="0.5"/>
    <polyline points="233.2,300 228.5,296 227.2,292 227.3,280 229,264 224.2,248 226.1,228 228.9,220 229.7,216 229.4,212 226.9,208 220,203.4 216.8,200 212,190.2 201.2,180 196,173 192,169.7 184,167.2 176,167.2 172,168.1 152,178.5 146.9,184 143.5,192 140,196 136,196.4 128,188.8 124,187.7 116,188.7 109.6,192 107.8,196 107.5,200 108.7,204 112,205 120,205.2 125.9,208 127.5,212 125,216 114,224 108,233 100,241.8 92,258.6 88,264.6 84,266.7 80,266.9 72,265.8 69.1,268 69.7,276 68,279.8 64,280.1 56,278.3 48,279.7 36,280.1 32,281 24,285.5 20,286.7 8,285.5 0,282.9" stroke="#95aead" stroke-width="1" opacity="0.5"/>
    <polyline points="0,200.5 8.3,208 10.6,212 11.3,216 10.1,228 8,235.4 4.1,240 0,242.9" stroke="#95aead" stroke-width="1" opacity="0.5"/>
    <polyline points="400,283.7 388,289.8 379.8,296 370.6,300" stroke="#95aead" stroke-width="1" opacity="0.5"/>
    <polyline points="0,38.2 28,18.3 48.9,0" stroke="#95aead" stroke-width="1.5" opacity="0.8"/>
    <polyline points="294.3,0 300,2.5 308,4.2 312,6.9 316,12.1 324.3,20 332,32.9 336,35.5 348,39 352,41.7 356,46.9 361.1,56 372,66.4 376.7,72 384,77 400,83.9" stroke="#95aead" stroke-width="1.5" opacity="0.8"/>
    <polyline points="259.8,300 244,290.2 240,285.5 238.3,280 238.4,264 234.8,248 236,242.6 242,232 242.8,228 241.6,216 241.4,200 240,192.7 236,190.7 232,191 228.9,188 227.5,180 224.6,176 212,167.9 196,154.4 192,152.5 188,151.8 184,151.7 176,153.1 172,154.6 163.3,160 156,163.4 140,165.9 136,167.2 124,173.5 112,174.8 108,176 88,186.6 83.5,192 79.3,204 72.8,212 77.2,220 78.2,224 76.9,240 76.1,244 74.1,248 68,251.6 56,254.1 48,257.4 40.8,268 36,270 32,269.9 28,268.1 25.9,264 25.9,256 27.7,248 26,228 27.8,220 32.8,208 32.8,204 29.6,192 26,188 24,186.8 12,183.7 8,181.7 0,174.3" stroke="#95aead" stroke-width="1.5" opacity="0.8"/>
    <polyline points="400,273.2 380,280.3 364,291.6 360,293.6 348,296.5 340.2,300" stroke="#95aead" stroke-width="1.5" opacity="0.8"/>
    <polyline points="0,49.1 16,40.7 27,36 33.5,32 40,26.1 48,20.6 52,16.6 59.5,4 63.4,0" stroke="#c27c2a" stroke-width="1.2" opacity="0.3"/>
    <polyline points="256.9,0 264,2.1 276,0.9 280,2.4 288,8.7 300.1,16 305.1,20 308.6,24 316,37.4 328.7,52 332,54.2 344,58.8 357.5,72 376,83.6 392,92 400,95" stroke="#c27c2a" stroke-width="1.2" opacity="0.3"/>
    <polyline points="400,261.8 388,266.4 372,271.2 344,285.5 312,296.4 304.3,296 286.2,292 272,282.4 267.4,280 256,276 252,272.4 250.4,268 246.5,252 246.2,248 247.5,244 256.2,232 256.7,228 254.1,220 253.3,212 258.3,196 258.6,188 256.9,180 252,173.5 236,158.6 210.8,144 200,139.6 192,138.2 176,139.1 171.5,140 156,148.9 152,149.5 140,149.2 124,154.7 120,155.3 108,154.1 104,154.9 100,157.1 92,165.5 88.2,168 72,176.9 68,177.5 56,176.6 32,169 16,167 11.2,164 4,154.3 0,150.2" stroke="#c27c2a" stroke-width="1.2" opacity="0.3"/>
    <polyline points="0,79 3.8,72 8,61.1 12,56.5 19.5,52 44,41.3 60,25.8 68,16.1 76,8.5 80,6.2 84,5.1 100,7.8 108,7.5 112,6.4 123,0" stroke="#95aead" stroke-width="1.5" opacity="0.8"/>
    <polyline points="219.1,0 228,4.6 240,7 252,12 280,19.2 296,27.7 300.3,32 308,47.3 317.1,60 320.6,64 337.4,76 348,89.1 352,90.6 364,91.2 368,93 380,101.6 384,103.7 400,107.4" stroke="#95aead" stroke-width="1.5" opacity="0.8"/>
    <polyline points="0,100.3 6,120 13.2,132 16.2,136 20,139.4 26.5,144 32,146.6 52.2,152 60,153.3 76,153.6 80,152.9 92,144.6 104,142.5 120,137.2 140,134.1 156,132.8 168,130.3 180,129 216,120.9 220,120.3 224,121.1 228,123.9 232,128.6 236,131.8 253.1,140 256,142.9 258.3,148 260.3,156 266.3,168 268.6,176 270.7,188 270.7,196 267.2,212 267.3,216 270.5,232 269.7,244 272,248.8 276,251.4 280,252.9 288,253.8 292,255.3 309.9,276 312,277.8 316,279 332,276.2 340,274 348,270.1 360,261.1 368,257 396,251.9 400,250.3" stroke="#95aead" stroke-width="1.5" opacity="0.8"/>
    <polyline points="400,233.2 396,237.1 392,239.4 380,242.2 364,244 360,245.4 355.8,248 336,264.8 332,266.3 328,266.8 324,265.6 321.8,264 314.9,256 306.5,248 296,240.4 288,235.9 284,232.3 281.5,228 280.2,224 279.6,216 281.5,192 277.6,176 274.5,156 275.2,152 279.4,144 280,140 277.8,136 272.4,132 268,130 248,123.6 244,120.6 240.2,116 232,102.9 228,99.1 224,98.4 220,100.2 212,107.3 208,109.3 196,112.5 180,118.5 172,119.3 152,117.6 148,118.2 140,122.3 136,123.4 124,122.7 108,124 104,124.6 92,129.6 80,131.9 76,131.5 72,127.7 68,125.9 52,126.3 40,127.8 36,126.9 28,121.3 16,110.4 13.6,104 13.1,96 15.6,76 17.1,72 20,69 28,67.1 32,65 36,59.1 40,57 48,56.9 52,56 56.3,52 63.4,40 72,32 96,19.3 104,17 116,15.3 140,6.3 148,2.2 152,0.8 156,0.8 188,12.7 192,13.1 204,8.6 208,8.1 212,9.3 224,20 253.9,28 276.9,40 282.1,44 283.9,48 283.1,56 279.7,68 280,74 283.3,80 288,86 292,88.7 296,89.3 300,87.4 304.1,84 308,82.5 312,82.1 316,82.9 320,85 328,93.3 336,98.5 344,102.4 352,104.1 364,105 368,106.2 380,113.8 384,115.2 400,117.9" stroke="#95aead" stroke-width="1" opacity="0.5"/>
    <polyline points="143.7,16 152,12.8 156,13 175.6,20 188,25.9 192,26.7 196,26.3 204,23.1 208,22.8 212,25.5 220,34.3 224,37.5 232,40.9 248.7,44 260,49.3 263,52 263.7,56 261.9,60 255.7,68 253.2,76 251.2,88 248,94.3 244,94.9 240,91.8 233,84 228,82.3 188,87.5 187,88 184.5,92 183.2,96 180,99.1 172,99.5 160,103.9 156,103.6 148,99.4 144,98.4 140,98.7 136,100.3 124,107.8 120,109 104,108.8 88,112.5 84,112 68,101.3 64,100.4 60,100.7 54.7,104 48,105.8 44,108.1 40,108.7 36,105.9 34.3,100 34.9,96 36,92.6 40,88.9 52,98.1 56,97.4 60,93.7 64.8,84 72,75.1 73.5,68 72.5,56 74.4,52 96,28.7 100,26.1 104,24.7 132,20.4 140,18 143.7,16" stroke="#95aead" stroke-width="1" opacity="0.5"/>
    <polyline points="400,221.3 388,228 372,234.3 356,236.7 340,242.6 328,242.7 316,240.5 306.7,236 292,221.4 289.3,216 288.8,212 291.6,192 294.6,180 295.4,172 300.3,160 300.5,144 304,139.2 308,137.1 312,136.6 316,137.6 324,143.8 328,142.8 332,136.5 334.7,128 336.8,124 340,120 344,117.6 348,116.7 368,119.2 384,124.5 400,127.1" stroke="#95aead" stroke-width="1" opacity="0.5"/>
    <polyline points="153.2,36 156,34.8 158.4,36 160,38.6 160,41.2 156.3,44 152,43.6 150.6,40 153.2,36" stroke="#95aead" stroke-width="1.5" opacity="0.8"/>
    <polyline points="107.5,40 116,38.1 124,38.6 128,41.5 133.4,48 134,52 131.6,56 121.5,68 120.1,72 122,80 121.7,84 120,86.5 116,88.8 108,89.1 101.7,88 97.3,84 96,80 97.4,68 103.8,44 107.5,40" stroke="#95aead" stroke-width="1.5" opacity="0.8"/>
    <polyline points="400,207.8 392,211.1 364,214.9 352,218.6 344,219.7 340,218.2 337.8,216 335.2,208 328.4,200 327.3,196 328.1,192 336,183.6 337.2,180 339.1,164 345.3,144 348,139.7 352,136.2 356,134.6 364,133.3 372,133.8 389.3,140 400,145.9" stroke="#95aead" stroke-width="1.5" opacity="0.8"/>
    <polyline points="400,191.2 396,194.2 390.3,196 384,195.7 380,193.4 368,178.6 358.3,172 356.7,168 356.5,164 357.4,156 358.7,152 360,150.1 364,147.3 368,146.5 372,147.5 392,162.3 400,170" stroke="#95aead" stroke-width="1" opacity="0.5"/>
  </g>
</svg>
